<svg xmlns="http://www.w3.org/2000/svg" width="30" height="30" viewBox="0 0 30 30">
  <defs>
    <style>
      .cls-1 {
        fill: #fff;
      }
    </style>
  </defs>
  <g id="instagram-with-circle" transform="translate(0 0)">
    <path id="Shape" class="cls-1" d="M6.4,12.81c-2.084,0-2.331-.008-3.156-.046A4.282,4.282,0,0,1,1.8,12.495,2.6,2.6,0,0,1,.314,11.012,4.3,4.3,0,0,1,.046,9.562C.008,8.736,0,8.489,0,6.4S.008,4.073.046,3.248A4.3,4.3,0,0,1,.314,1.8,2.6,2.6,0,0,1,1.8.314,4.3,4.3,0,0,1,3.248.046C4.073.008,4.321,0,6.4,0S8.736.008,9.562.046a4.3,4.3,0,0,1,1.451.268A2.6,2.6,0,0,1,12.495,1.8a4.282,4.282,0,0,1,.269,1.451c.038.825.046,1.073.046,3.156s-.008,2.332-.046,3.157a4.282,4.282,0,0,1-.269,1.451,2.591,2.591,0,0,1-1.482,1.482,4.282,4.282,0,0,1-1.451.269C8.736,12.8,8.489,12.81,6.4,12.81Zm0-10.417A4.011,4.011,0,1,0,10.417,6.4,4.016,4.016,0,0,0,6.4,2.393Zm4.171-1.1a.937.937,0,1,0,.938.938A.939.939,0,0,0,10.575,1.3Z" transform="translate(8.595 8.595)"/>
    <circle id="Oval" class="cls-1" cx="2.604" cy="2.604" r="2.604" transform="translate(12.396 12.396)"/>
    <path id="Shape-2" data-name="Shape" class="cls-1" d="M15,30A15,15,0,0,1,4.393,4.393,15,15,0,1,1,25.606,25.606,14.9,14.9,0,0,1,15,30ZM15,7.187c-2.109,0-2.386.009-3.221.047a5.721,5.721,0,0,0-1.9.364A4,4,0,0,0,7.6,9.883a5.721,5.721,0,0,0-.364,1.9c-.038.835-.047,1.112-.047,3.221s.009,2.386.047,3.221a5.729,5.729,0,0,0,.364,1.9A4,4,0,0,0,9.883,22.4a5.7,5.7,0,0,0,1.9.364c.835.038,1.112.047,3.221.047s2.386-.009,3.221-.047a5.729,5.729,0,0,0,1.9-.364A4,4,0,0,0,22.4,20.118a5.706,5.706,0,0,0,.364-1.9c.038-.835.047-1.112.047-3.221s-.009-2.386-.047-3.221a5.7,5.7,0,0,0-.364-1.9A4,4,0,0,0,20.118,7.6a5.729,5.729,0,0,0-1.9-.364C17.387,7.2,17.109,7.187,15,7.187Z" transform="translate(0 0)"/>
  </g>
</svg>
