<svg id="twitter-with-circle" xmlns="http://www.w3.org/2000/svg" width="30" height="30" viewBox="0 0 30 30">
  <defs>
    <style>
      .cls-1 {
        fill: #fff;
      }
    </style>
  </defs>
  <path id="Shape" class="cls-1" d="M15,30A15,15,0,0,1,4.393,4.393,15,15,0,0,1,25.607,25.607,14.9,14.9,0,0,1,15,30ZM8.177,19.749h0A8.4,8.4,0,0,0,21.11,12.668c0-.148,0-.269-.008-.381a5.945,5.945,0,0,0,1.473-1.53,5.924,5.924,0,0,1-1.7.467,2.963,2.963,0,0,0,1.3-1.635,5.939,5.939,0,0,1-1.876.716,2.955,2.955,0,0,0-5.111,2.02,2.889,2.889,0,0,0,.077.675A8.431,8.431,0,0,1,9.178,9.913a2.959,2.959,0,0,0,.914,3.946,2.968,2.968,0,0,1-1.339-.37v.036a2.964,2.964,0,0,0,2.37,2.9,2.983,2.983,0,0,1-.778.1,3.1,3.1,0,0,1-.555-.051,2.959,2.959,0,0,0,2.759,2.05,5.882,5.882,0,0,1-3.668,1.264A5.819,5.819,0,0,1,8.177,19.749Z"/>
</svg>
