<svg id="dribbble-with-circle" xmlns="http://www.w3.org/2000/svg" width="30" height="30" viewBox="0 0 30 30">
  <defs>
    <style>
      .cls-1 {
        fill: #fff;
      }
    </style>
  </defs>
  <path id="Shape" class="cls-1" d="M15,30A15,15,0,0,1,4.393,4.393,15,15,0,0,1,25.607,25.607,14.9,14.9,0,0,1,15,30ZM15,7.658A7.34,7.34,0,1,0,22.341,15,7.351,7.351,0,0,0,15,7.658Zm0,13.467a6.055,6.055,0,0,1-3.714-1.261A8.417,8.417,0,0,1,16.05,16.1a25.817,25.817,0,0,1,1.284,4.566A6.1,6.1,0,0,1,15,21.125Zm3.522-1.114v0a27.341,27.341,0,0,0-1.156-4.234,8.332,8.332,0,0,1,1.183-.083,9.086,9.086,0,0,1,2.488.345,6.166,6.166,0,0,1-2.512,3.973Zm-8.15-1h0A6.123,6.123,0,0,1,8.875,15a1.042,1.042,0,0,1,0-.119h.155a22.9,22.9,0,0,0,6.1-.871c.174.347.316.646.436.913l-.027.007c-.045.012-.091.025-.134.04a9.983,9.983,0,0,0-5.034,4.037Zm10.751-4.169h0a15.079,15.079,0,0,0-2.813-.269,11.783,11.783,0,0,0-1.378.076c-.018-.045-.037-.089-.056-.133s-.038-.088-.056-.133c-.109-.256-.232-.528-.378-.83a8.3,8.3,0,0,0,3.351-2.369,6.16,6.16,0,0,1,1.331,3.655Zm-12.069-1.2H9.027a6.17,6.17,0,0,1,3.3-4.154,37.035,37.035,0,0,1,2.211,3.424A22.947,22.947,0,0,1,9.053,13.642ZM15.892,12.5h0a31.405,31.405,0,0,0-2.22-3.473,6.115,6.115,0,0,1,5.32,1.333,6.943,6.943,0,0,1-3.1,2.141Z"/>
</svg>
