<svg id="linkedin-with-circle" xmlns="http://www.w3.org/2000/svg" width="30" height="30" viewBox="0 0 30 30">
  <defs>
    <style>
      .cls-1 {
        fill: #fff;
      }
    </style>
  </defs>
  <path id="Shape" class="cls-1" d="M15,30A15,15,0,0,1,4.393,4.393,15,15,0,0,1,25.607,25.607,14.9,14.9,0,0,1,15,30Zm2.845-16.317c1.007,0,1.539.732,1.539,2.118v5.417h3.037v-5.78c0-2.641-1.307-4.217-3.5-4.217A3.492,3.492,0,0,0,15.907,12.8h-.061l-.139-1.357H13.067c.039.85.08,1.862.08,3.118v6.656h3.038V15.58a2.077,2.077,0,0,1,.1-.76A1.7,1.7,0,0,1,17.845,13.683Zm-9.554-2.24v9.775h3.038V11.443ZM9.83,7.2a1.521,1.521,0,1,0-.04,3.038,1.514,1.514,0,0,0,1.638-1.52A1.5,1.5,0,0,0,9.83,7.2Z"/>
</svg>
