<svg id="medium-with-circle" xmlns="http://www.w3.org/2000/svg" width="29.647" height="29.647" viewBox="0 0 29.647 29.647">
  <defs>
    <style>
      .cls-1 {
        fill: #fff;
      }
    </style>
  </defs>
  <path id="Shape" class="cls-1" d="M14.824,29.647A14.823,14.823,0,0,1,4.342,4.342,14.823,14.823,0,0,1,25.305,25.305,14.726,14.726,0,0,1,14.824,29.647Zm2.162-11.22v1.441h4.323V18.427h-.18a.531.531,0,0,1-.54-.54V11.761a.532.532,0,0,1,.54-.541h.18V9.779H16.543l-1.692,6.24H14.8l-1.677-6.24H8.339V11.22h.18a.532.532,0,0,1,.54.541v6.125a.532.532,0,0,1-.54.541h-.18v1.441h3.6V18.427H11.22v-6.7h.072l2.189,8.142h1.944l2.209-8.142h.072v6.7Z" transform="translate(0 0)"/>
</svg>
